<svg width="1920" height="1080" viewBox="0 0 1920 1080" xmlns="http://www.w3.org/2000/svg">
  <!-- 基础背景渐变 - 日间模式 -->
  <defs>
    <linearGradient id="bgGradient" x1="0%" y1="0%" x2="100%" y2="100%">
      <stop offset="0%" stop-color="#f0f9ff" />
      <stop offset="100%" stop-color="#e0f2fe" />
    </linearGradient>
    
    <!-- 动态波浪效果 -->
    <filter id="gooey" x="-50%" y="-50%" width="200%" height="200%">
      <feGaussianBlur in="SourceGraphic" stdDeviation="30" result="blur" />
      <feColorMatrix in="blur" mode="matrix" values="1 0 0 0 0  0 1 0 0 0  0 0 1 0 0  0 0 0 20 -10" result="gooey" />
    </filter>
  </defs>
  
  <!-- 主背景 -->
  <rect width="100%" height="100%" fill="url(#bgGradient)" />
  
  <!-- 装饰元素 -->
  <g opacity="0.25">
    <!-- 模糊圆形 -->
    <circle cx="300" cy="200" r="250" fill="#8b5cf6" filter="url(#gooey)" />
    <circle cx="1600" cy="800" r="300" fill="#6366f1" filter="url(#gooey)" />
    <circle cx="1200" cy="300" r="200" fill="#818cf8" filter="url(#gooey)" />
    <circle cx="800" cy="900" r="280" fill="#a78bfa" filter="url(#gooey)" />
    
    <!-- 网格线 -->
    <g stroke="#4338ca" stroke-width="0.5" opacity="0.1">
      <line x1="0" y1="200" x2="1920" y2="200" />
      <line x1="0" y1="400" x2="1920" y2="400" />
      <line x1="0" y1="600" x2="1920" y2="600" />
      <line x1="0" y1="800" x2="1920" y2="800" />
      <line x1="400" y1="0" x2="400" y2="1080" />
      <line x1="800" y1="0" x2="800" y2="1080" />
      <line x1="1200" y1="0" x2="1200" y2="1080" />
      <line x1="1600" y1="0" x2="1600" y2="1080" />
    </g>
    
    <!-- 点阵装饰 -->
    <g fill="#4338ca" opacity="0.15">
      <circle cx="400" cy="200" r="2" />
      <circle cx="800" cy="200" r="2" />
      <circle cx="1200" cy="200" r="2" />
      <circle cx="1600" cy="200" r="2" />
      <circle cx="400" cy="400" r="2" />
      <circle cx="800" cy="400" r="2" />
      <circle cx="1200" cy="400" r="2" />
      <circle cx="1600" cy="400" r="2" />
      <circle cx="400" cy="600" r="2" />
      <circle cx="800" cy="600" r="2" />
      <circle cx="1200" cy="600" r="2" />
      <circle cx="1600" cy="600" r="2" />
      <circle cx="400" cy="800" r="2" />
      <circle cx="800" cy="800" r="2" />
      <circle cx="1200" cy="800" r="2" />
      <circle cx="1600" cy="800" r="2" />
    </g>
  </g>
</svg> 