<svg t="1745288834984" class="icon" viewBox="0 0 1024 1024" version="1.1" xmlns="http://www.w3.org/2000/svg" p-id="2826" width="200" height="200"><path d="M695.808 927.36c-7.68 0-15.104 0.48-22.304-0.224-1.984-0.192-4.672-3.648-5.28-6.176-5.408-21.312-9.92-43.04-15.808-64.224a80.64 80.64 0 0 0-11.2-23.552c-7.2-11.072-19.392-12.48-27.52-2.144-7.872 9.952-14.88 21.216-19.776 33.088-7.104 17.248-12.32 35.424-17.28 53.568-2.144 7.52-4.736 11.36-12.832 10.048-4.608-0.704-9.504-0.096-15.2-0.096 1.184-31.04 2.208-61.088 3.392-93.952-7.2 3.648-12.704 5.472-16.896 8.736-9.696 7.904-19.296 16.128-28 25.056-15.904 16.416-31.296 33.472-46.72 50.528-9.696 10.656-13.088 11.744-29.76 7.808a20677.792 20677.792 0 0 1 59.488-102.08c-19.424-5.664-36.32-13.472-43.52-33.664-4.608-12.608-3.904-24.96 1.216-37.952 1.184 4.352 2.08 8.928 3.392 13.28 6.496 22.624 26.112 34.4 48.192 27.616a30.272 30.272 0 0 0 15.2-11.776c19.424-31.776 38.112-63.936 56.512-96.192 3.392-5.888 6.816-7.008 13.12-5.888 30.4 4.864 60.8 9.44 91.392 1.312 6.72-1.824 13.12-4.672 20.192-7.2v254.08zM567.296 282.144c16.64 0 29.504-11.872 29.504-26.784-0.096-14.816-13.696-27.104-29.696-27.008-16.704 0.096-29.184 11.776-29.312 27.008 0 14.912 12.928 26.656 29.504 26.784z m328.832-129.664c-11.392 1.12-23.008 1.504-34.304 3.328-17.504 2.848-34.208 8.64-48.096 20.288-12.288 10.144-10.88 24.864 2.784 32.672 5.504 3.04 11.712 5.376 17.728 7.008 27.68 7.712 55.904 5.696 83.904 2.56 14.4-1.632 28.608-6.304 42.112-11.584 9.28-3.648 16.288-11.776 15.872-23.36-0.48-11.04-9.28-15.008-17.28-18.88-19.712-9.28-41.024-11.936-62.72-12.032zM178.88 391.232c1.6 21.408 4 43.008 4.8 64.544 1.504 40.064-14.08 71.904-46.208 95.264a228.416 228.416 0 0 1-81.408 38.144c-34.592 8.224-63.392-20.608-54.4-55.488 5.12-19.904 11.712-40.192 21.888-57.76 25.408-43.424 41.024-90.496 53.728-138.784a144.96 144.96 0 0 1 9.504-26.368c6.88-14.624 22.592-22.112 37.696-17.568 10.88 3.36 21.504 8 31.584 13.504 16.096 8.512 31.808 18.24 47.616 27.488 9.696-10.56 19.008-21.696 29.12-31.872 35.392-35.584 78.976-58.24 123.488-79.136 69.696-32.64 141.44-60.352 216.832-76.288a829.888 829.888 0 0 1 106.208-14.816 1249.92 1249.92 0 0 1 127.68-3.744c55.232 1.312 109.632 8.736 160.032 34.496 27.2 13.888 50.016 33.088 54.912 64.512 3.392 22.016 2.08 45.376-0.416 67.776-4.096 38.08-19.392 73.056-34.304 107.648-4 9.152-14.4 16.448-23.296 21.824-22.784 13.504-48.192 20.48-74.016 25.472-72.704 14.08-144.096 7.808-213.6-17.568-41.28-15.008-74.624-42.4-104.928-73.76-3.2-3.232-5.696-7.584-9.6-9.44-4.096-2.016-10.56-3.648-13.472-1.6-3.008 2.112-4.8 9.12-4 13.28 1.088 4.992 4.8 9.92 8.384 13.888 44 48.32 97.6 80.672 160.704 95.488 75.424 17.664 150.528 16.736 224.544-8.224 4.16-1.408 8.384-3.04 12.48-4.96 4-1.824 7.904-4.064 13.408-4.992-8.192 12.096-15.904 24.352-24.416 36.16-57.408 78.08-131.104 133.088-224 160.576-59.296 17.568-118.624 15.04-177.6 0.512-98.528-24.32-189.024-66.368-267.04-133.312-24.32-20.8-47.2-43.328-63.2-71.616a139.68 139.68 0 0 1-14.4-34.72c-2.304-9.824-6.208-16-14.304-18.56z" fill="#d81e06" p-id="2827"></path></svg> 